<svg xmlns="http://www.w3.org/2000/svg" width="64" height="64" viewBox="0 0 64 64" fill="none">
  <circle cx="32" cy="32" r="32" fill="#F7931A"/>
  <path d="M41.5 28.4c.6-3.9-2.4-6-6.4-7.4l1.3-5.2-3.2-.8-1.3 5.1c-.8-.2-1.7-.4-2.5-.6l1.3-5.1-3.2-.8-1.3 5.2c-.7-.2-1.4-.3-2-.5v0l-4.4-1.1-.9 3.4s2.4.5 2.3.6c1.3.3 1.5 1.2 1.5 1.9L21 29c.1 0 .3.1.5.1-.2 0-.3-.1-.5-.1l-2.1 8.4c-.2.4-.6 1-1.6.8 0 .1-2.3-.6-2.3-.6l-1.6 3.6 4.1 1c.8.2 1.5.4 2.2.6l-1.3 5.3 3.2.8 1.3-5.2c.9.2 1.7.5 2.5.7l-1.3 5.2 3.2.8 1.3-5.3c5.5 1 9.6.6 11.3-4.4 1.4-4-.1-6.3-3-7.8 2.1-.5 3.7-1.9 4.1-4.8ZM34.1 40.5c-1 4-7.7 1.8-9.9 1.3l1.7-6.9c2.2.6 9.2 1.7 8.2 5.6Zm1-12.1c-.9 3.6-6.4 1.8-8.2 1.3l1.6-6.3c1.8.5 7.6 1.3 6.6 5Z" fill="#fff"/>
</svg>
